<svg width="23" height="19" viewBox="0 0 23 19" fill="none" xmlns="http://www.w3.org/2000/svg">
<path d="M20.2913 1.61183C19.7805 1.10083 19.1741 0.695472 18.5066 0.41891C17.8392 0.142347 17.1238 0 16.4013 0C15.6788 0 14.9634 0.142347 14.2959 0.41891C13.6285 0.695472 13.022 1.10083 12.5113 1.61183L11.4513 2.67183L10.3913 1.61183C9.3596 0.580134 7.96032 0.000534762 6.50129 0.000534773C5.04226 0.000534784 3.64298 0.580134 2.61129 1.61183C1.5796 2.64352 1 4.04279 1 5.50183C1 6.96086 1.5796 8.36013 2.61129 9.39183L3.67129 10.4518L11.4513 18.2318L19.2313 10.4518L20.2913 9.39183C20.8023 8.88107 21.2076 8.27464 21.4842 7.60718C21.7608 6.93972 21.9031 6.22431 21.9031 5.50183C21.9031 4.77934 21.7608 4.06393 21.4842 3.39647C21.2076 2.72901 20.8023 2.12258 20.2913 1.61183Z" fill="#FA8AB3"/>
<path d="M21.0505 10.2042H17.0505L12.9513 12.5018L8.45129 6.50182L5.05048 10.2042H1.05048" stroke="#FF5F9A" stroke-width="2" stroke-linecap="round" stroke-linejoin="round"/>
</svg>
