<svg width="24" height="24" viewBox="0 0 24 24" fill="none" xmlns="http://www.w3.org/2000/svg">
<path d="M11 21C11.5523 21 12 20.5523 12 20C12 19.4477 11.5523 19 11 19C10.4477 19 10 19.4477 10 20C10 20.5523 10.4477 21 11 21Z" stroke="#6BF380" stroke-width="2" stroke-linecap="round" stroke-linejoin="round"/>
<path d="M18 21C18.5523 21 19 20.5523 19 20C19 19.4477 18.5523 19 18 19C17.4477 19 17 19.4477 17 20C17 20.5523 17.4477 21 18 21Z" stroke="#6BF380" stroke-width="2" stroke-linecap="round" stroke-linejoin="round"/>
<path d="M1 1H5L7.68 14.39C7.77144 14.8504 8.02191 15.264 8.38755 15.5583C8.75318 15.8526 9.2107 16.009 9.68 16H19.4C19.8693 16.009 20.3268 15.8526 20.6925 15.5583C21.0581 15.264 21.3086 14.8504 21.4 14.39L23 6H6" stroke="#6BF380" stroke-width="2" stroke-linecap="round" stroke-linejoin="round"/>
</svg>
