<svg width="71" height="37" viewBox="0 0 71 37" fill="none" xmlns="http://www.w3.org/2000/svg">
<path d="M70.2566 28.5528C70.5675 28.0963 70.4494 27.4742 69.9929 27.1633L62.554 22.0976C62.0975 21.7868 61.4754 21.9048 61.1645 22.3613C60.8537 22.8178 60.9717 23.4399 61.4282 23.7507L68.0407 28.2536L63.5378 34.866C63.2269 35.3225 63.345 35.9446 63.8015 36.2554C64.258 36.5663 64.8801 36.4482 65.1909 35.9917L70.2566 28.5528ZM1.35946 17.9924C1.22425 18.002 1.11159 18.011 1.04088 18.0195C1.02593 18.0213 0.98699 18.026 0.943128 18.0347C0.934374 18.0364 0.859561 18.0502 0.771817 18.084C0.710387 18.11 0.529099 18.2185 0.419681 18.314C0.216705 18.6106 0.193232 19.3681 0.414787 19.717C0.551573 19.834 0.778709 19.9546 0.852822 19.9792C0.89323 19.99 0.95906 20.0039 0.984872 20.0081C1.03126 20.015 1.06892 20.0173 1.08278 20.0181C1.1164 20.0201 1.14682 20.0203 1.16394 20.0204C1.29038 20.0208 1.58602 20.0089 1.99313 19.9877C2.833 19.9437 4.26681 19.853 6.10223 19.7047C9.77179 19.4083 15.0647 18.8804 20.4387 18.0326C25.7967 17.1874 31.3011 16.0145 35.3604 14.4092C37.3821 13.6096 39.1309 12.6705 40.3207 11.5473C41.5332 10.4026 42.2558 8.96553 41.9094 7.28772L39.9507 7.69206C40.1118 8.47257 39.8424 9.24837 38.9478 10.0929C38.0304 10.959 36.5567 11.7853 34.6249 12.5493C30.7772 14.071 25.4506 15.2173 20.1271 16.0571C14.8196 16.8943 9.58043 17.4172 5.94119 17.7112C4.1222 17.8582 2.70741 17.9476 1.88868 17.9904C1.46649 18.0125 1.23033 18.0206 1.1705 18.0204C1.16433 18.0204 1.17687 18.0202 1.1981 18.0215C1.20576 18.0219 1.23859 18.0238 1.28155 18.0302C1.30564 18.0342 1.3701 18.0477 1.40948 18.0583C1.48257 18.0826 1.70903 18.2029 1.84548 18.3195C2.06671 18.6681 2.04326 19.4253 1.84065 19.7214C1.73161 19.8166 1.55104 19.9247 1.49069 19.9503C1.40509 19.9833 1.33383 19.9961 1.33006 19.9969C1.30954 20.0009 1.29442 20.0032 1.28954 20.0039C1.28321 20.0048 1.27943 20.0052 1.2793 20.0052C1.27921 20.0053 1.28421 20.0047 1.29631 20.0035C1.30779 20.0024 1.32308 20.001 1.34268 19.9994C1.38196 19.9961 1.43426 19.9921 1.50077 19.9874L1.35946 17.9924ZM41.9094 7.28772C40.7876 1.85323 35.6839 -0.849442 31.7113 0.576813C29.683 1.30501 28.1024 3.07252 27.5751 5.80122C27.0557 8.48888 27.5551 12.0784 29.512 16.611L31.3482 15.8182C29.4789 11.4885 29.124 8.32705 29.5387 6.18069C29.9456 4.07535 31.0876 2.92574 32.3871 2.45917C35.0701 1.49592 39.0427 3.29324 39.9507 7.69206L41.9094 7.28772ZM29.512 16.611C33.5757 26.0234 43.8628 29.0123 52.7172 29.7456C57.1894 30.116 61.4083 29.9226 64.5039 29.6384C66.0535 29.4961 67.326 29.3306 68.2135 29.2003C68.6573 29.1351 69.0051 29.0787 69.2433 29.0383C69.3625 29.0181 69.4543 29.0019 69.517 28.9906C69.5484 28.985 69.5725 28.9805 69.5892 28.9775C69.5975 28.9759 69.604 28.9747 69.6085 28.9739C69.6108 28.9734 69.6126 28.9731 69.614 28.9728C69.6146 28.9727 69.6153 28.9726 69.6156 28.9725C69.6161 28.9724 69.6165 28.9724 69.4301 27.9899C69.2436 27.0074 69.2438 27.0074 69.2438 27.0074C69.2437 27.0074 69.2436 27.0074 69.2433 27.0075C69.2428 27.0076 69.2417 27.0078 69.2402 27.0081C69.2372 27.0087 69.2322 27.0096 69.2255 27.0108C69.2119 27.0133 69.191 27.0172 69.1628 27.0222C69.1065 27.0324 69.0213 27.0474 68.909 27.0665C68.6843 27.1046 68.3512 27.1586 67.9229 27.2215C67.0661 27.3473 65.8298 27.5082 64.321 27.6467C61.2998 27.9241 57.2036 28.1103 52.8823 27.7524C44.1498 27.0293 34.9369 24.1306 31.3482 15.8182L29.512 16.611Z" fill="url(#paint0_linear_26_278)"/>
<defs>
<linearGradient id="paint0_linear_26_278" x1="58.2741" y1="10.9776" x2="3.47634" y2="-8.69714" gradientUnits="userSpaceOnUse">
<stop offset="0.0341208" stop-color="white"/>
<stop offset="1" stop-color="#25A3FA" stop-opacity="0"/>
</linearGradient>
</defs>
</svg>
