<svg width="43" height="43" viewBox="0 0 43 43" fill="none" xmlns="http://www.w3.org/2000/svg">
<path d="M16.2728 40.8502C26.9592 43.737 37.9632 37.414 40.8506 26.7275C43.7368 16.0405 37.4144 5.03658 26.7273 2.14978C16.0408 -0.737015 5.03685 5.58604 2.14943 16.2731C-0.737381 26.9595 5.58568 37.9634 16.2728 40.8502Z" fill="white"/>
<path d="M26.3484 3.55381C16.4526 0.880344 6.22631 6.75626 3.55345 16.652C0.879981 26.5477 6.75591 36.7734 16.6517 39.4468C26.5474 42.1197 36.7731 36.2437 39.4466 26.348C42.1195 16.4523 36.2441 6.22665 26.3484 3.55381ZM27.1062 0.746391C38.5499 3.83783 45.3455 15.6628 42.2534 27.1065C39.1626 38.5501 27.3375 45.3451 15.8932 42.2536C4.44957 39.1622 -2.34543 27.3372 0.746648 15.8935C3.83748 4.44992 15.6625 -2.34505 27.1062 0.746391Z" fill="black"/>
<path d="M35.0795 24.6041L34.7955 25.6565L37.2141 26.3102L37.4981 25.2572L35.0795 24.6041Z" fill="black"/>
<path d="M5.78601 16.6904L5.50137 17.7428L7.91996 18.3965L8.2046 17.344L5.78601 16.6904Z" fill="black"/>
<path d="M25.2569 5.50173L24.6033 7.92032L25.6563 8.20496L26.3093 5.78637L25.2569 5.50173Z" fill="black"/>
<path d="M17.3431 34.7957L16.6901 37.2143L17.7431 37.4989L18.3962 35.0797L17.3431 34.7957Z" fill="black"/>
<path d="M32.0649 24.0473L22.3459 20.776C22.2411 20.7412 22.1282 20.8014 22.0997 20.9081L21.7747 22.1105C21.7456 22.2178 21.8126 22.3263 21.9211 22.3487L31.9651 24.4162C32.2007 24.4652 32.2931 24.1235 32.0649 24.0473Z" fill="#4A72AB"/>
<path d="M23.5298 13.2958L20.8507 20.8386C20.8129 20.944 20.873 21.0588 20.981 21.0879L22.1772 21.411C22.2851 21.4402 22.3949 21.3713 22.4154 21.2616L23.8994 13.395C23.9428 13.1624 23.6092 13.0725 23.5298 13.2958Z" fill="#4A72AB"/>
<path d="M21.0554 23.1474C21.9645 23.393 22.9009 22.8547 23.1471 21.945C23.3927 21.0352 22.8544 20.0988 21.9447 19.8532C21.0349 19.6076 20.0985 20.1453 19.8529 21.055C19.6073 21.9648 20.1456 22.9012 21.0554 23.1474Z" fill="black"/>
</svg>
