<svg width="52" height="55" viewBox="0 0 52 55" fill="none" xmlns="http://www.w3.org/2000/svg">
<path opacity="0.97" fill-rule="evenodd" clip-rule="evenodd" d="M32.5202 46.561C32.3489 46.0953 32.4497 45.6696 32.8227 45.2839C34.9966 44.2756 37.1894 43.3102 39.4013 42.3877C35.1582 36.4544 36.9518 32.5747 44.7823 30.7484C41.2422 22.4228 37.6541 14.1177 34.0183 5.83341C33.6101 5.51025 33.131 5.38405 32.5811 5.45493C29.4422 6.72384 26.3213 8.03598 23.2185 9.39141C24.1987 12.0452 23.2817 14.0702 20.4675 15.4665C18.2023 16.2428 16.323 15.8243 14.8295 14.2111C14.6114 13.8997 14.4398 13.5652 14.3145 13.2078C12.5911 13.9465 10.8677 14.6852 9.14436 15.4238C7.69822 16.0183 6.27127 16.6553 4.86364 17.3351C4.53984 17.7034 4.34872 18.1169 4.29025 18.5754C8.71884 29.1721 13.2431 39.7276 17.8632 50.2423C18.2116 50.7656 18.7276 50.978 19.4112 50.8793C22.4066 49.6719 25.3838 48.4213 28.343 47.1274C28.9581 47.0792 29.441 47.2803 29.7915 47.7306C29.8786 48.1056 29.8072 48.4677 29.5771 48.8169C26.311 50.3189 23.0078 51.7347 19.6678 53.0643C18.134 53.2601 16.8828 52.8528 15.9142 51.8426C11.2422 40.9424 6.57007 30.042 1.89803 19.1417C1.8444 17.8043 2.36443 16.6378 3.45818 15.6426C6.9728 13.9411 10.5262 12.316 14.1184 10.7674C14.7866 8.57543 16.3362 7.29925 18.7674 6.93882C19.7915 6.82725 20.722 7.01503 21.5587 7.50189C25.1839 6.0334 28.8204 4.60219 32.4682 3.20836C34.2014 3.06173 35.5024 3.65157 36.3716 4.97777C38.2515 9.29746 40.1312 13.6172 42.0111 17.9369C43.9482 22.3941 45.7877 26.8841 47.5295 31.4069C45.6783 35.4942 43.7632 39.5534 41.7843 43.5847C39.0448 44.861 36.2682 46.0511 33.4547 47.1549C33.0197 47.101 32.7083 46.9031 32.5202 46.561Z" fill="#000101"/>
<path fill-rule="evenodd" clip-rule="evenodd" d="M18.709 9.18231C18.3152 10.8794 18.8692 12.1719 20.371 13.0599C18.7655 14.1362 17.4832 13.9208 16.5241 12.4138C16.1283 10.7281 16.8566 9.65099 18.709 9.18231Z" fill="#FA4452"/>
<path fill-rule="evenodd" clip-rule="evenodd" d="M18.709 9.18231C20.5609 9.14984 21.4111 10.0094 21.2593 11.7612C21.1157 12.2801 20.8195 12.7131 20.371 13.0599C18.8692 12.1719 18.3152 10.8794 18.709 9.18231Z" fill="#FB616C"/>
<path fill-rule="evenodd" clip-rule="evenodd" d="M9.14436 15.4238C9.0902 15.7315 9.08133 16.0413 9.11772 16.3532C10.3015 19.3134 11.5333 22.2534 12.8131 25.1732C11.216 25.2194 10.7838 25.8637 11.5165 27.1059C12.4432 27.4026 13.348 27.7288 14.2309 28.0845C14.5583 29.2422 14.9906 30.3829 15.5277 31.5066C13.8959 31.5073 13.4637 32.1515 14.2311 33.4393C15.0915 33.7134 15.93 34.0171 16.7465 34.3501C17.2451 35.5134 17.7437 36.6767 18.2423 37.84C16.9978 37.6038 16.4586 38.0644 16.6246 39.2218C16.7396 39.4735 16.913 39.6797 17.1447 39.8404C17.9388 40.0919 18.711 40.373 19.4611 40.6835C20.5638 43.3222 21.7142 45.9401 22.9123 48.5371C23.0819 48.6684 23.2515 48.7998 23.4211 48.931C25.0753 48.3226 26.7159 47.7213 28.343 47.1274C25.3838 48.4213 22.4066 49.6719 19.4112 50.8793C18.7276 50.978 18.2116 50.7656 17.8632 50.2423C13.2431 39.7276 8.71884 29.1721 4.29024 18.5754C4.34872 18.1169 4.53983 17.7034 4.86364 17.3351C6.27127 16.6553 7.69822 16.0183 9.14436 15.4238Z" fill="#00C1F9"/>
<path fill-rule="evenodd" clip-rule="evenodd" d="M9.14436 15.4238C10.8677 14.6852 12.5911 13.9465 14.3145 13.2078C14.4398 13.5652 14.6115 13.8997 14.8295 14.2111C16.323 15.8243 18.2023 16.2428 20.4675 15.4665C23.2817 14.0702 24.1987 12.0452 23.2185 9.39141C26.3213 8.03598 29.4422 6.72384 32.5811 5.45493C33.131 5.38405 33.6101 5.51025 34.0184 5.83341C37.6541 14.1177 41.2422 22.4228 44.7823 30.7484C36.9518 32.5747 35.1582 36.4544 39.4013 42.3877C37.1894 43.3102 34.9966 44.2756 32.8227 45.2839C32.4497 45.6696 32.3489 46.0953 32.5202 46.561C31.6107 46.9509 30.701 47.3407 29.7915 47.7306C29.441 47.2803 28.9581 47.0792 28.343 47.1274C26.7159 47.7213 25.0753 48.3226 23.4211 48.931C23.2515 48.7998 23.0819 48.6684 22.9123 48.5371C21.7142 45.9401 20.5638 43.3222 19.4611 40.6835C19.7604 40.7323 20.0644 40.7805 20.3731 40.8281C20.7671 40.7673 21.0837 40.5806 21.323 40.268C22.0434 38.7097 22.7638 37.1515 23.4842 35.5932C23.1667 34.2516 22.4407 34.0783 21.3064 35.0732C20.8359 36.0908 20.3654 37.1085 19.8949 38.1261C19.302 38.278 18.7511 38.1826 18.2423 37.84C17.7437 36.6767 17.2451 35.5134 16.7465 34.3501C17.6098 34.6753 18.3077 34.4527 18.8402 33.6822C19.443 32.3784 20.0458 31.0745 20.6486 29.7707C20.8927 28.31 20.2844 27.8823 18.8236 28.4874C18.168 29.656 17.5762 30.8532 17.048 32.0789C16.519 31.9177 16.0123 31.7268 15.5277 31.5066C14.9906 30.3829 14.5583 29.2422 14.2309 28.0845C14.9261 28.2975 15.5282 28.1159 16.0374 27.5397C16.699 26.1086 17.3606 24.6775 18.0222 23.2465C18.0003 21.8405 17.3331 21.5399 16.0208 22.3449C15.5142 23.4823 14.9756 24.6055 14.4052 25.7148C13.8409 25.5965 13.3102 25.4159 12.8131 25.1732C11.5333 22.2534 10.3015 19.3134 9.11773 16.3532C9.08133 16.0413 9.09021 15.7315 9.14436 15.4238Z" fill="#00D0FA"/>
<path fill-rule="evenodd" clip-rule="evenodd" d="M14.2309 28.0845C13.3481 27.7288 12.4432 27.4026 11.5165 27.1059C10.7838 25.8637 11.216 25.2195 12.8131 25.1732C13.3102 25.4159 13.8409 25.5965 14.4052 25.7148C14.9756 24.6056 15.5142 23.4823 16.0208 22.3449C17.3331 21.5399 18.0003 21.8405 18.0222 23.2465C17.3606 24.6776 16.699 26.1086 16.0374 27.5397C15.5283 28.1159 14.9261 28.2975 14.2309 28.0845Z" fill="#000304"/>
<path fill-rule="evenodd" clip-rule="evenodd" d="M21.4854 21.6091C25.5934 19.8228 29.7195 18.0799 33.8639 16.38C34.6316 16.507 34.9636 16.9512 34.86 17.7125C34.787 17.8396 34.6949 17.9556 34.5841 18.0603C30.504 19.9111 26.3872 21.6756 22.2333 23.354C21.2198 23.0881 20.9705 22.5065 21.4854 21.6091Z" fill="#000101"/>
<path fill-rule="evenodd" clip-rule="evenodd" d="M16.7465 34.3501C15.93 34.0171 15.0915 33.7134 14.2311 33.4393C13.4637 32.1515 13.8959 31.5073 15.5277 31.5066C16.0123 31.7268 16.519 31.9177 17.048 32.0789C17.5762 30.8532 18.168 29.656 18.8236 28.4874C20.2844 27.8823 20.8927 28.31 20.6486 29.7707C20.0458 31.0745 19.443 32.3784 18.8402 33.6822C18.3077 34.4527 17.6098 34.6753 16.7465 34.3501Z" fill="#020708"/>
<path fill-rule="evenodd" clip-rule="evenodd" d="M24.2882 27.7517C28.3004 26.0064 32.3308 24.3045 36.3794 22.6457C37.161 22.6277 37.5703 22.9877 37.6074 23.7258C37.5189 24.0008 37.368 24.2438 37.155 24.4552C33.1708 26.265 29.1496 27.9885 25.0915 29.6259C23.8759 29.408 23.6082 28.7834 24.2882 27.7517Z" fill="#000304"/>
<path fill-rule="evenodd" clip-rule="evenodd" d="M19.4611 40.6835C18.711 40.373 17.9388 40.092 17.1447 39.8404C16.913 39.6797 16.7396 39.4735 16.6246 39.2218C16.4586 38.0644 16.9978 37.6038 18.2423 37.84C18.7511 38.1826 19.302 38.278 19.8949 38.1261C20.3654 37.1085 20.8359 36.0908 21.3064 35.0732C22.4407 34.0783 23.1667 34.2516 23.4842 35.5932C22.7638 37.1515 22.0434 38.7097 21.323 40.268C21.0837 40.5806 20.7671 40.7673 20.3731 40.8281C20.0644 40.7805 19.7604 40.7323 19.4611 40.6835Z" fill="#010405"/>
<path fill-rule="evenodd" clip-rule="evenodd" d="M26.8591 34.1466C30.9672 32.3603 35.0933 30.6174 39.2377 28.9175C40.307 29.2365 40.5177 29.8603 39.8696 30.7886C35.8854 32.5984 31.8642 34.3219 27.8061 35.9592C26.6572 35.7808 26.3416 35.1766 26.8591 34.1466Z" fill="#010405"/>
<path fill-rule="evenodd" clip-rule="evenodd" d="M40.0124 35.0878C41.3444 34.4915 42.6941 33.9384 44.0613 33.4289C43.0468 35.6232 42.0323 37.8175 41.0179 40.0118C40.405 38.8465 39.8879 37.6401 39.4667 36.3927C39.5516 35.919 39.7336 35.4841 40.0124 35.0878Z" fill="#5FD8F6"/>
</svg>
