<svg width="72" height="69" viewBox="0 0 72 69" fill="none" xmlns="http://www.w3.org/2000/svg">
<g clip-path="url(#clip0_15_274)">
<path opacity="0.981" fill-rule="evenodd" clip-rule="evenodd" d="M15.1373 12.448C26.194 9.09959 37.2508 5.75113 48.3074 2.4027C49.0888 2.50415 49.6634 2.87852 50.0311 3.52589C50.5914 5.11107 51.0782 6.71851 51.4915 8.34822C51.5147 8.78333 51.3 9.06769 50.8476 9.20131C50.448 9.25566 50.1117 9.13816 49.8385 8.84881C49.3252 7.28597 48.8117 5.72317 48.2983 4.16032C47.0467 4.43106 45.806 4.77026 44.5762 5.17786C35.0572 8.04235 25.5483 10.9403 16.0497 13.8717C16.1069 14.4474 16.2375 15.0111 16.4415 15.5628C24.2239 13.1877 32.0165 10.846 39.8191 8.53791C40.0699 8.57163 40.3207 8.60535 40.5715 8.63907C42.5268 9.5863 44.4905 10.5088 46.4626 11.4067C47.1289 11.7677 47.8136 12.1087 48.5169 12.4298C48.6309 12.5415 48.7449 12.6532 48.859 12.7649C52.3318 24.0338 55.7679 35.3137 59.1673 46.605C59.793 46.4492 60.3889 46.2321 60.9552 45.9539C57.5538 34.5902 54.1526 23.2265 50.7513 11.8628C50.8775 11.5196 51.1023 11.2687 51.4256 11.1101C51.8762 10.9703 52.2125 11.0878 52.4347 11.4626C55.9462 22.793 59.3843 34.1455 62.7488 45.5203C62.8287 46.2957 62.5165 46.9203 61.8125 47.3943C61.094 47.6667 60.3643 47.9059 59.6237 48.112C60.8821 50.546 60.0312 51.9735 57.0709 52.3948C57.3504 53.1605 57.5286 53.9474 57.6054 54.7555C57.4605 55.2723 57.1661 55.6905 56.7221 56.0102C45.6654 59.3586 34.6086 62.707 23.5519 66.0555C22.7706 65.9541 22.196 65.5797 21.8283 64.9323C18.408 53.9034 15.0613 42.8522 11.788 31.7788C11.7648 31.3437 11.9795 31.0593 12.4319 30.9257C12.7889 30.8782 13.1151 30.9623 13.4105 31.1777C16.794 42.2178 20.1775 53.2578 23.561 64.2978C33.1159 61.5137 42.6583 58.6605 52.1883 55.738C53.4062 55.3875 54.6133 55.0036 55.8097 54.5864C55.7524 54.0107 55.6219 53.447 55.4179 52.8954C54.169 53.2736 52.92 53.6519 51.6711 54.0301C50.7938 54.314 49.9071 54.5643 49.0111 54.7808C48.5615 54.6714 48.3182 54.3977 48.2812 53.9599C48.2761 53.6245 48.4458 53.3904 48.7903 53.2573C52.0226 52.3145 55.2266 51.3076 58.4024 50.2367C54.8166 38.1977 51.1942 26.1698 47.5349 14.153C46.6533 14.42 45.7717 14.687 44.8901 14.9539C44.1595 15.1934 43.4198 15.3992 42.6709 15.5712C41.9217 15.5575 41.3358 15.278 40.9131 14.7325C40.4017 13.2426 39.9269 11.7412 39.4888 10.2283C30.7835 12.8282 22.1063 15.4926 13.457 18.2215C17.6024 32.175 21.8214 46.1061 26.1138 60.015C32.5413 58.1597 38.9665 56.2687 45.3893 54.3421C45.6497 54.3501 45.8422 54.4563 45.9671 54.6607C46.2228 55.0914 46.1355 55.4651 45.7051 55.782C39.2603 57.8069 32.7953 59.7648 26.3099 61.6557C25.5644 61.6438 24.9785 61.3643 24.5521 60.817C20.562 47.8402 16.6087 34.8523 12.6921 21.8532C12.0663 22.0091 11.4704 22.2261 10.9042 22.5043C11.4354 24.3908 11.9666 26.2772 12.4978 28.1637C12.4311 28.556 12.2164 28.8403 11.8538 29.0168C11.4033 29.1567 11.0669 29.0392 10.8448 28.6643C10.1196 26.6481 9.53774 24.5942 9.09906 22.5026C9.18583 21.9026 9.50177 21.4231 10.0469 21.0639C10.7654 20.7915 11.495 20.5523 12.2357 20.3462C10.9772 17.9122 11.8282 16.4846 14.7885 16.0634C14.509 15.2977 14.3308 14.5108 14.254 13.7026C14.3965 13.1843 14.6909 12.7661 15.1373 12.448Z" fill="#010101"/>
<path fill-rule="evenodd" clip-rule="evenodd" d="M44.5762 5.17786C45.205 7.25415 45.8338 9.33042 46.4626 11.4067C44.4905 10.5089 42.5268 9.5863 40.5715 8.63907C40.3207 8.60535 40.0699 8.57164 39.8191 8.53792C32.0165 10.846 24.2239 13.1877 16.4415 15.5628C16.2375 15.0111 16.1069 14.4474 16.0497 13.8717C25.5483 10.9403 35.0571 8.04236 44.5762 5.17786Z" fill="#FDE076"/>
<path fill-rule="evenodd" clip-rule="evenodd" d="M44.5762 5.17786C45.806 4.77026 47.0467 4.43106 48.2984 4.16032C48.8117 5.72317 49.3252 7.28597 49.8385 8.84881C50.1117 9.13816 50.448 9.25566 50.8476 9.20131C51.0403 9.83758 51.233 10.4739 51.4257 11.1101C51.1023 11.2687 50.8775 11.5196 50.7513 11.8628C54.1526 23.2265 57.5539 34.5902 60.9552 45.9539C60.3889 46.2321 59.793 46.4492 59.1673 46.605C55.7679 35.3137 52.3318 24.0338 48.859 12.7649C48.7449 12.6532 48.6309 12.5415 48.5169 12.4298C47.8137 12.1087 47.1289 11.7677 46.4626 11.4067C45.8338 9.33042 45.205 7.25414 44.5762 5.17786Z" fill="#FED05A"/>
<path fill-rule="evenodd" clip-rule="evenodd" d="M44.8901 14.9539C48.531 26.9763 52.1718 38.9986 55.8127 51.021C53.4326 51.7055 51.0918 52.451 48.7903 53.2573C48.4458 53.3904 48.2761 53.6245 48.2813 53.9599C47.9624 54.1933 47.597 54.3771 47.185 54.5112C46.7679 54.6282 46.3619 54.678 45.9671 54.6607C45.8422 54.4563 45.6497 54.3501 45.3893 54.3421C38.9665 56.2687 32.5413 58.1597 26.1138 60.015C21.8214 46.1061 17.6024 32.175 13.457 18.2215C22.1063 15.4926 30.7835 12.8282 39.4888 10.2283C39.9269 11.7412 40.4017 13.2426 40.9131 14.7325C41.3358 15.278 41.9217 15.5575 42.6709 15.5712C43.4198 15.3992 44.1596 15.1934 44.8901 14.9539Z" fill="#F6F0EE"/>
<path fill-rule="evenodd" clip-rule="evenodd" d="M41.6171 10.8999C41.7962 11.886 42.0536 12.8683 42.3893 13.8467C41.9441 12.9022 41.6398 11.8976 41.4765 10.8328C41.5472 10.825 41.594 10.8473 41.6171 10.8999Z" fill="#6D6664"/>
<path fill-rule="evenodd" clip-rule="evenodd" d="M41.6171 10.8999C43.0102 11.6075 44.4215 12.2952 45.8511 12.9629C44.7694 13.3636 43.6674 13.6973 42.5451 13.9641C42.4722 13.9442 42.4203 13.9051 42.3893 13.8467C42.0536 12.8683 41.7962 11.886 41.6171 10.8999Z" fill="#DBCEC9"/>
<path fill-rule="evenodd" clip-rule="evenodd" d="M20.2005 18.0438C22.8996 17.2828 24.5789 18.127 25.2383 20.5763C25.2439 22.7251 24.0883 24.0073 21.7715 24.423C19.6386 24.3782 18.3949 23.3838 18.0408 21.4398C18.0509 19.9326 18.7709 18.8005 20.2005 18.0438Z" fill="#040404"/>
<path fill-rule="evenodd" clip-rule="evenodd" d="M26.1743 17.1121C29.3652 16.1275 32.5661 15.1764 35.7769 14.2589C36.4374 14.3784 36.6927 14.7581 36.5429 15.3979C36.4793 15.4858 36.4026 15.5639 36.313 15.632C33.1008 16.678 29.8682 17.6569 26.6155 18.5689C26.1299 18.4403 25.895 18.1276 25.9103 17.6308C26.0253 17.4638 26.1132 17.2909 26.1743 17.1121Z" fill="#030303"/>
<path opacity="0.999" fill-rule="evenodd" clip-rule="evenodd" d="M45.9671 54.6607C46.3619 54.678 46.7678 54.6282 47.185 54.5112C47.597 54.3771 47.9624 54.1933 48.2813 53.9599C48.3182 54.3977 48.5615 54.6714 49.0111 54.7808C49.9071 54.5643 50.7938 54.314 51.6711 54.0301C51.8435 54.5994 52.0159 55.1686 52.1883 55.738C42.6583 58.6605 33.1159 61.5137 23.561 64.2979C20.1775 53.2578 16.794 42.2178 13.4105 31.1777C13.1151 30.9623 12.7889 30.8782 12.4319 30.9257C12.2392 30.2894 12.0465 29.6531 11.8538 29.0168C12.2165 28.8403 12.4311 28.556 12.4978 28.1637C11.9666 26.2772 11.4354 24.3908 10.9042 22.5043C11.4704 22.2261 12.0663 22.0091 12.6921 21.8532C16.6087 34.8523 20.562 47.8402 24.5521 60.817C24.9785 61.3643 25.5644 61.6438 26.3099 61.6557C32.7953 59.7648 39.2603 57.8069 45.7051 55.782C46.1355 55.4651 46.2228 55.0914 45.9671 54.6607Z" fill="#B2D9FD"/>
<path fill-rule="evenodd" clip-rule="evenodd" d="M20.6873 19.6513C21.2 19.7012 21.5769 19.9527 21.8181 20.4056C22.2374 21.1796 22.2584 21.9776 21.8813 22.7994C20.633 22.8502 19.9241 22.2971 19.7547 21.1402C19.7673 20.4875 20.0782 19.9912 20.6873 19.6513Z" fill="#25A3FA"/>
<path fill-rule="evenodd" clip-rule="evenodd" d="M20.6873 19.6513C22.4769 18.9736 23.4264 19.5269 23.536 21.3112C23.323 22.1243 22.7714 22.6204 21.8813 22.7994C22.2584 21.9776 22.2374 21.1796 21.8181 20.4056C21.5769 19.9527 21.2 19.7012 20.6873 19.6513Z" fill="#058FF5"/>
<path fill-rule="evenodd" clip-rule="evenodd" d="M44.8901 14.9539C45.7717 14.687 46.6533 14.42 47.5349 14.153C51.1942 26.1698 54.8166 38.1977 58.4024 50.2367C55.2266 51.3076 52.0226 52.3145 48.7903 53.2573C51.0918 52.451 53.4326 51.7055 55.8127 51.021C52.1718 38.9986 48.531 26.9763 44.8901 14.9539Z" fill="#F2E9E5"/>
<path fill-rule="evenodd" clip-rule="evenodd" d="M27.2581 20.2936C30.4123 19.3201 33.5764 18.3802 36.7505 17.4738C37.411 17.5933 37.6663 17.973 37.5165 18.6128C37.4529 18.7007 37.3762 18.7788 37.2867 18.8469C34.0745 19.8929 30.8419 20.8718 27.5891 21.7838C27.1035 21.6552 26.8686 21.3425 26.8839 20.8457C26.9901 20.6413 27.1148 20.4573 27.2581 20.2936Z" fill="#060606"/>
<path fill-rule="evenodd" clip-rule="evenodd" d="M20.3014 27.1166C28.4879 24.6191 36.6845 22.1552 44.8912 19.7247C45.5931 19.7413 45.875 20.0765 45.737 20.7298C45.674 20.8806 45.5709 21.0033 45.4273 21.0978C37.1826 23.6678 28.9176 26.1708 20.6324 28.6068C19.8648 28.256 19.7545 27.7594 20.3014 27.1166Z" fill="#050505"/>
<path fill-rule="evenodd" clip-rule="evenodd" d="M21.4156 30.3986C29.5654 27.9122 37.7253 25.4594 45.8952 23.04C46.7968 23.1774 47.0122 23.6239 46.5416 24.3798C38.2602 26.9609 29.9584 29.475 21.6364 31.9221C20.828 31.5374 20.7543 31.0296 21.4156 30.3986Z" fill="#0B0A0A"/>
<path fill-rule="evenodd" clip-rule="evenodd" d="M22.2297 33.8812C23.474 33.486 24.7281 33.1245 25.9917 32.7967C26.4772 32.9253 26.7122 33.238 26.6968 33.7348C26.6102 33.9309 26.4804 34.0981 26.3074 34.2366C25.1522 34.6596 23.9768 35.0156 22.781 35.3046C21.9624 35.0677 21.7786 34.5933 22.2297 33.8812Z" fill="#080808"/>
<path fill-rule="evenodd" clip-rule="evenodd" d="M27.8499 32.1792C34.2732 30.2156 40.7067 28.2856 47.1501 26.3891C47.9308 26.7514 47.9993 27.2425 47.3556 27.8623C41.0578 29.8427 34.7396 31.7562 28.4012 33.6025C27.7408 33.483 27.4854 33.1034 27.6352 32.4635C27.7276 32.3734 27.7991 32.2786 27.8499 32.1792Z" fill="#060606"/>
<path fill-rule="evenodd" clip-rule="evenodd" d="M23.3439 37.1632C31.5671 34.6545 39.8005 32.1794 48.0439 29.7378C48.9206 29.9842 49.0625 30.4529 48.4698 31.1443C40.2618 33.7032 32.0336 36.195 23.7851 38.6199C22.9107 38.3551 22.7637 37.8695 23.3439 37.1632Z" fill="#010101"/>
<path fill-rule="evenodd" clip-rule="evenodd" d="M24.3479 40.4785C32.5344 37.981 40.731 35.517 48.9377 33.0865C49.6396 33.1032 49.9215 33.4383 49.7835 34.0917C49.7205 34.2425 49.6174 34.3652 49.4739 34.4597C41.2292 37.0297 32.9642 39.5327 24.6789 41.9686C23.9113 41.6179 23.801 41.1212 24.3479 40.4785Z" fill="#050505"/>
<path fill-rule="evenodd" clip-rule="evenodd" d="M25.2722 43.9277C33.5689 41.3968 41.8757 38.8995 50.1926 36.4356C50.8978 36.6883 51.0297 37.1237 50.5881 37.7416C42.3067 40.3228 34.0049 42.8369 25.6829 45.284C24.9606 45.0007 24.8237 44.5486 25.2722 43.9277Z" fill="black"/>
<path fill-rule="evenodd" clip-rule="evenodd" d="M26.2762 47.2431C34.5729 44.7121 42.8797 42.2148 51.1966 39.751C51.9778 40.1233 52.0464 40.6144 51.4022 41.2242C43.231 43.7719 35.0394 46.2527 26.8276 48.6664C26.009 48.4296 25.8251 47.9552 26.2762 47.2431Z" fill="#060606"/>
<path fill-rule="evenodd" clip-rule="evenodd" d="M27.6149 51.6635C31.0262 50.6121 34.4475 49.5943 37.8787 48.6101C38.6595 48.9723 38.728 49.4635 38.0843 50.0833C34.7986 51.1515 31.4926 52.1527 28.1663 53.0869C27.3569 52.8324 27.1732 52.358 27.6149 51.6635Z" fill="#070706"/>
<path fill-rule="evenodd" clip-rule="evenodd" d="M41.3899 47.4919C44.9848 46.3849 48.5898 45.3114 52.2047 44.2715C52.5625 44.3277 52.8673 44.4731 53.1188 44.7076C53.5168 45.757 53.8413 46.8286 54.0924 47.9225C54.0804 48.3466 53.8809 48.6812 53.4941 48.9263C49.988 50.0613 46.4616 51.1292 42.9149 52.1301C42.457 52.1408 42.1054 51.9731 41.8602 51.6269C41.4621 50.5775 41.1376 49.506 40.8866 48.4121C40.9863 48.0684 41.1541 47.7617 41.3899 47.4919Z" fill="#030405"/>
<path fill-rule="evenodd" clip-rule="evenodd" d="M42.8381 48.6985C44.9319 48.0644 47.0257 47.4303 49.1195 46.7962C49.2817 47.332 49.444 47.8679 49.6063 48.4037C47.5125 49.0378 45.4187 49.6719 43.3249 50.3059C43.1626 49.7702 43.0003 49.2343 42.8381 48.6985Z" fill="#26A5FE"/>
<path fill-rule="evenodd" clip-rule="evenodd" d="M49.1195 46.7962C50.0011 46.5292 50.8827 46.2623 51.7643 45.9953C51.9367 46.5646 52.1091 47.1339 52.2815 47.7032C51.3999 47.9702 50.5183 48.2372 49.6367 48.5041C49.6266 48.4707 49.6164 48.4371 49.6063 48.4037C49.444 47.8679 49.2817 47.332 49.1195 46.7962Z" fill="#0491F9"/>
<path fill-rule="evenodd" clip-rule="evenodd" d="M42.8381 48.6985C43.0003 49.2343 43.1626 49.7702 43.3249 50.3059C45.4187 49.6719 47.5125 49.0378 49.6063 48.4037C49.6164 48.4371 49.6266 48.4707 49.6367 48.5041C47.5062 49.1493 45.3756 49.7946 43.2451 50.4398C43.0314 49.862 42.8957 49.2816 42.8381 48.6985Z" fill="#1F88D0"/>
<path fill-rule="evenodd" clip-rule="evenodd" d="M28.5885 54.8784C31.963 53.8381 35.3476 52.8315 38.7421 51.8583C39.3669 51.9614 39.6121 52.3075 39.4777 52.8969C39.391 53.0759 39.2511 53.2097 39.0579 53.2982C35.7722 54.3664 32.4662 55.3676 29.1399 56.3018C28.3142 56.0761 28.1304 55.6016 28.5885 54.8784Z" fill="#040404"/>
<path fill-rule="evenodd" clip-rule="evenodd" d="M51.6711 54.0301C52.92 53.6519 54.169 53.2736 55.4179 52.8954C55.6219 53.447 55.7524 54.0107 55.8097 54.5864C54.6133 55.0036 53.4062 55.3875 52.1883 55.738C52.0159 55.1686 51.8435 54.5994 51.6711 54.0301Z" fill="#88C7FC"/>
</g>
<defs>
<clipPath id="clip0_15_274">
<rect width="58.9529" height="53.7452" fill="white" transform="translate(0 17.0871) rotate(-16.8485)"/>
</clipPath>
</defs>
</svg>
