<svg width="68" height="68" viewBox="0 0 68 68" fill="none" xmlns="http://www.w3.org/2000/svg">
<g clip-path="url(#clip0_26_211)">
<path opacity="0.981" fill-rule="evenodd" clip-rule="evenodd" d="M18.2617 -0.0664062C31.5872 -0.0664062 44.9128 -0.0664062 58.2383 -0.0664062C59.0669 0.342964 59.5761 1.00703 59.7656 1.92578C59.8542 4.05078 59.8542 6.17578 59.7656 8.30078C59.6457 8.83615 59.3137 9.10177 58.7695 9.09766C58.3103 9.01695 57.9782 8.75132 57.7734 8.30078C57.7292 6.22005 57.6849 4.13933 57.6406 2.05859C56.1684 1.92745 54.6853 1.88319 53.1914 1.92578C41.7252 1.90364 30.2591 1.92578 18.793 1.99219C18.6638 2.71025 18.6194 3.44072 18.6602 4.18359C28.0456 4.16145 37.4311 4.18359 46.8164 4.25C47.082 4.38281 47.3477 4.51562 47.6133 4.64844C49.4551 6.51249 51.3145 8.34974 53.1914 10.1602C53.8063 10.8417 54.4482 11.5057 55.1172 12.1523C55.2058 12.3294 55.2942 12.5065 55.3828 12.6836C55.4492 27.6028 55.4714 42.522 55.4492 57.4414C56.192 57.4822 56.9225 57.4378 57.6406 57.3086C57.6849 42.3008 57.7292 27.293 57.7734 12.2852C58.0275 11.9159 58.3595 11.6945 58.7695 11.6211C59.3137 11.617 59.6457 11.8826 59.7656 12.418C59.8542 27.4258 59.8542 42.4336 59.7656 57.4414C59.5946 58.4096 59.0411 59.0515 58.1055 59.3672C57.2212 59.4336 56.3357 59.4556 55.4492 59.4336C56.0247 62.8425 54.6081 64.2591 51.1992 63.6836C51.2518 64.7133 51.1854 65.7316 51 66.7383C50.6673 67.3108 50.2025 67.7093 49.6055 67.9336C36.28 67.9336 22.9544 67.9336 9.62892 67.9336C8.80023 67.5243 8.29112 66.8602 8.10157 65.9414C8.01303 51.332 8.01303 36.7227 8.10157 22.1133C8.22149 21.5779 8.55352 21.3123 9.09767 21.3164C9.50762 21.3899 9.83965 21.6112 10.0938 21.9805C10.138 36.5898 10.1823 51.1992 10.2266 65.8086C21.7054 65.9411 33.1937 65.9855 44.6914 65.9414C46.153 65.9636 47.6139 65.9414 49.0742 65.875C49.2034 65.1569 49.2478 64.4264 49.207 63.6836C47.7019 63.6836 46.1966 63.6836 44.6914 63.6836C43.628 63.7056 42.5655 63.6836 41.5039 63.6172C41.0441 63.3198 40.8671 62.8992 40.9727 62.3555C41.079 61.9475 41.3447 61.7262 41.7695 61.6914C45.653 61.7351 49.5267 61.6907 53.3906 61.5586C53.457 45.6655 53.4792 29.7722 53.457 13.8789C52.3945 13.8789 51.332 13.8789 50.2695 13.8789C49.383 13.901 48.4976 13.8789 47.6133 13.8125C46.7908 13.5212 46.2375 12.9679 45.9531 12.1523C45.8867 10.1606 45.8645 8.16846 45.8867 6.17578C35.4073 6.13174 24.9373 6.17601 14.4766 6.30859C14.388 24.7253 14.388 43.1419 14.4766 61.5586C22.1924 61.669 29.9177 61.7354 37.6523 61.7578C37.9371 61.863 38.1141 62.0622 38.1836 62.3555C38.322 62.9708 38.1006 63.3913 37.5195 63.6172C29.7278 63.7058 21.9363 63.7058 14.1445 63.6172C13.3255 63.3294 12.7721 62.7761 12.4844 61.957C12.418 44.78 12.3958 27.603 12.418 10.4258C11.6751 10.3851 10.9446 10.4293 10.2266 10.5586C10.1823 13.0378 10.138 15.5169 10.0938 17.9961C9.889 18.4466 9.55697 18.7122 9.09767 18.793C8.55352 18.7971 8.22149 18.5315 8.10157 17.9961C7.9751 15.2887 8.01937 12.5882 8.23438 9.89453C8.53076 9.19984 9.03987 8.735 9.76173 8.5C10.646 8.43365 11.5315 8.41151 12.418 8.43359C11.8425 5.02473 13.2591 3.60808 16.668 4.18359C16.6154 3.1539 16.6818 2.13568 16.8672 1.12891C17.1978 0.553496 17.6626 0.155059 18.2617 -0.0664062Z" fill="#010101"/>
<path fill-rule="evenodd" clip-rule="evenodd" d="M53.1914 1.92578C53.1914 4.67058 53.1914 7.41536 53.1914 10.1602C51.3145 8.34974 49.4551 6.51249 47.6133 4.64844C47.3477 4.51563 47.082 4.38281 46.8164 4.25C37.4311 4.1836 28.0456 4.16146 18.6602 4.1836C18.6194 3.44072 18.6637 2.71025 18.793 1.99219C30.2591 1.92578 41.7252 1.90364 53.1914 1.92578Z" fill="white"/>
<path fill-rule="evenodd" clip-rule="evenodd" d="M53.1914 1.92579C54.6853 1.8832 56.1684 1.92746 57.6406 2.0586C57.6849 4.13934 57.7292 6.22006 57.7734 8.30079C57.9782 8.75133 58.3103 9.01695 58.7695 9.09766C58.7695 9.93881 58.7695 10.78 58.7695 11.6211C58.3595 11.6945 58.0275 11.9159 57.7734 12.2852C57.7292 27.293 57.6849 42.3008 57.6406 57.3086C56.9225 57.4378 56.192 57.4822 55.4492 57.4414C55.4714 42.5221 55.4492 27.6028 55.3828 12.6836C55.2942 12.5065 55.2058 12.3294 55.1172 12.1524C54.4482 11.5057 53.8063 10.8417 53.1914 10.1602C53.1914 7.41537 53.1914 4.67059 53.1914 1.92579Z" fill="#4789FC"/>
<path fill-rule="evenodd" clip-rule="evenodd" d="M50.2695 13.8789C50.2695 29.7722 50.2695 45.6653 50.2695 61.5586C47.4131 61.5146 44.5798 61.559 41.7695 61.6914C41.3447 61.7262 41.079 61.9475 40.9727 62.3555C40.5426 62.5212 40.0778 62.6098 39.5781 62.6211C39.0785 62.6098 38.6136 62.5212 38.1836 62.3555C38.1141 62.0622 37.9371 61.863 37.6523 61.7578C29.9177 61.7354 22.1924 61.669 14.4766 61.5586C14.388 43.1419 14.388 24.7253 14.4766 6.30859C24.9373 6.176 35.4073 6.13173 45.8867 6.17577C45.8645 8.16845 45.8867 10.1606 45.9531 12.1523C46.2375 12.9679 46.7908 13.5212 47.6133 13.8125C48.4975 13.8789 49.383 13.9009 50.2695 13.8789Z" fill="white"/>
<path fill-rule="evenodd" clip-rule="evenodd" d="M48.0117 7.76953C47.8797 9.02934 47.8355 10.3132 47.8789 11.6211C47.7032 10.3141 47.7032 8.98595 47.8789 7.63672C47.9595 7.65313 48.0038 7.6974 48.0117 7.76953Z" fill="#6D6664"/>
<path fill-rule="evenodd" clip-rule="evenodd" d="M48.0117 7.76953C49.313 9.13729 50.6412 10.4876 51.9961 11.8203C50.668 11.9089 49.3399 11.9089 48.0117 11.8203C47.9379 11.7695 47.8937 11.7031 47.8789 11.6211C47.8355 10.3132 47.8797 9.02934 48.0117 7.76953Z" fill="#DBCEC9"/>
<path fill-rule="evenodd" clip-rule="evenodd" d="M21.9805 8.56641C25.2146 8.63472 26.7861 10.2727 26.6953 13.4805C25.983 16.0845 24.2786 17.2134 21.582 16.8672C19.2424 16.0307 18.2019 14.3706 18.4609 11.8867C18.976 10.0652 20.1492 8.95846 21.9805 8.56641Z" fill="#56A9F6"/>
<path fill-rule="evenodd" clip-rule="evenodd" d="M28.8867 9.6289C32.7386 9.60678 36.5901 9.6289 40.4414 9.69531C41.1306 10.0822 41.2856 10.6356 40.9063 11.3555C40.8066 11.4386 40.6959 11.505 40.5742 11.5547C36.6784 11.6432 32.7825 11.6432 28.8867 11.5547C28.3937 11.2209 28.2389 10.7561 28.4219 10.1602C28.6046 10.0001 28.7595 9.82302 28.8867 9.6289Z" fill="#56A9F6"/>
<path opacity="0.999" fill-rule="evenodd" clip-rule="evenodd" d="M38.1836 62.3555C38.6136 62.5212 39.0785 62.6098 39.5781 62.6211C40.0778 62.6098 40.5426 62.5212 40.9727 62.3555C40.8671 62.8992 41.0441 63.3198 41.5039 63.6172C42.5655 63.6836 43.628 63.7057 44.6914 63.6836C44.6914 64.4362 44.6914 65.1888 44.6914 65.9414C33.1937 65.9855 21.7054 65.9411 10.2266 65.8086C10.1823 51.1992 10.138 36.5899 10.0937 21.9805C9.83964 21.6113 9.50761 21.3899 9.09766 21.3164C9.09766 20.4753 9.09766 19.6341 9.09766 18.793C9.55696 18.7122 9.88899 18.4466 10.0937 17.9961C10.138 15.5169 10.1823 13.0378 10.2266 10.5586C10.9446 10.4294 11.6751 10.3851 12.418 10.4258C12.3958 27.603 12.418 44.78 12.4844 61.957C12.7721 62.7761 13.3255 63.3294 14.1445 63.6172C21.9362 63.7058 29.7278 63.7058 37.5195 63.6172C38.1006 63.3913 38.322 62.9708 38.1836 62.3555Z" fill="#FBFBFB"/>
<path fill-rule="evenodd" clip-rule="evenodd" d="M21.9805 10.6914C22.5298 10.9399 22.8618 11.3826 22.9766 12.0195C23.1807 13.1106 22.9371 14.0845 22.2461 14.9414C20.851 14.5451 20.2534 13.6154 20.4531 12.1523C20.6853 11.3666 21.1943 10.8796 21.9805 10.6914Z" fill="white"/>
<path fill-rule="evenodd" clip-rule="evenodd" d="M21.9805 10.6914C24.1826 10.5271 25.0459 11.5453 24.5703 13.7461C24.0634 14.6527 23.2885 15.0511 22.2461 14.9414C22.9371 14.0845 23.1807 13.1106 22.9766 12.0195C22.8618 11.3826 22.5298 10.9399 21.9805 10.6914Z" fill="#F6F6F6"/>
<path fill-rule="evenodd" clip-rule="evenodd" d="M50.2695 13.8789C51.332 13.8789 52.3945 13.8789 53.457 13.8789C53.4792 29.7722 53.457 45.6655 53.3906 61.5586C49.5267 61.6908 45.653 61.7351 41.7695 61.6914C44.5798 61.559 47.4131 61.5146 50.2695 61.5586C50.2695 45.6653 50.2695 29.7722 50.2695 13.8789Z" fill="#F6F6F6"/>
<path fill-rule="evenodd" clip-rule="evenodd" d="M29.0195 13.8789C32.8271 13.8567 36.6343 13.8789 40.4414 13.9453C41.1306 14.3322 41.2856 14.8856 40.9063 15.6055C40.8066 15.6886 40.6959 15.755 40.5742 15.8047C36.6784 15.8933 32.7825 15.8933 28.8867 15.8047C28.3937 15.4709 28.2389 15.0061 28.4219 14.4101C28.6074 14.2016 28.8066 14.0245 29.0195 13.8789Z" fill="#56A9F6"/>
<path fill-rule="evenodd" clip-rule="evenodd" d="M19.0586 19.5898C28.9311 19.5677 38.8034 19.5898 48.6758 19.6563C49.445 19.9338 49.6442 20.443 49.2734 21.1836C49.1535 21.3431 48.9986 21.4539 48.8086 21.5156C38.8477 21.6042 28.8867 21.6042 18.9258 21.5156C18.1957 20.8095 18.2399 20.1676 19.0586 19.5898Z" fill="#56A9F6"/>
<path fill-rule="evenodd" clip-rule="evenodd" d="M19.1914 23.9727C29.0197 23.9505 38.8478 23.9727 48.6758 24.0391C49.6251 24.5361 49.7137 25.1558 48.9414 25.8984C38.9363 25.987 28.931 25.987 18.9258 25.8984C18.162 25.1361 18.2504 24.4942 19.1914 23.9727Z" fill="#56A9F6"/>
<path fill-rule="evenodd" clip-rule="evenodd" d="M18.9258 28.4883C20.4316 28.4661 21.9369 28.4883 23.4414 28.5547C23.9344 28.8884 24.0893 29.3533 23.9062 29.9492C23.745 30.1549 23.5458 30.3098 23.3086 30.4141C21.8919 30.5027 20.4753 30.5027 19.0586 30.4141C18.2341 29.827 18.1897 29.1852 18.9258 28.4883Z" fill="#56A9F6"/>
<path fill-rule="evenodd" clip-rule="evenodd" d="M25.6992 28.4883C33.4467 28.4661 41.1942 28.4883 48.9414 28.5547C49.6822 29.2797 49.5937 29.8996 48.6758 30.4141C41.0612 30.5027 33.4466 30.5027 25.832 30.4141C25.1429 30.0272 24.9879 29.4738 25.3672 28.7539C25.4993 28.6787 25.61 28.5902 25.6992 28.4883Z" fill="#56A9F6"/>
<path fill-rule="evenodd" clip-rule="evenodd" d="M19.0586 32.8711C28.9753 32.8489 38.892 32.8711 48.8086 32.9375C49.694 33.5573 49.694 34.177 48.8086 34.7969C38.8919 34.8855 28.9753 34.8855 19.0586 34.7969C18.1819 34.1555 18.1819 33.5136 19.0586 32.8711Z" fill="#56A9F6"/>
<path fill-rule="evenodd" clip-rule="evenodd" d="M19.0586 37.2539C28.9311 37.2317 38.8034 37.2539 48.6758 37.3203C49.445 37.5979 49.6442 38.1071 49.2734 38.8477C49.1535 39.0072 48.9986 39.1179 48.8086 39.1797C38.8477 39.2683 28.8867 39.2683 18.9258 39.1797C18.1957 38.4735 18.2399 37.8316 19.0586 37.2539Z" fill="#56A9F6"/>
<path fill-rule="evenodd" clip-rule="evenodd" d="M18.9258 41.7695C28.9311 41.7474 38.9362 41.7695 48.9414 41.8359C49.6355 42.4005 49.6355 42.9761 48.9414 43.5625C38.9362 43.6511 28.9309 43.6511 18.9258 43.5625C18.2231 42.9546 18.2231 42.357 18.9258 41.7695Z" fill="#56A9F6"/>
<path fill-rule="evenodd" clip-rule="evenodd" d="M18.9258 46.1523C28.9311 46.1302 38.9362 46.1523 48.9414 46.2188C49.6793 46.9561 49.5909 47.576 48.6758 48.0781C38.8034 48.1667 28.9309 48.1667 19.0586 48.0781C18.2341 47.4911 18.1897 46.8492 18.9258 46.1523Z" fill="#56A9F6"/>
<path fill-rule="evenodd" clip-rule="evenodd" d="M18.9258 51.9961C23.0432 51.9739 27.1604 51.9961 31.2774 52.0625C32.0182 52.7875 31.9296 53.4074 31.0117 53.9219C27.0274 54.0105 23.043 54.0105 19.0586 53.9219C18.2502 53.3169 18.206 52.675 18.9258 51.9961Z" fill="#56A9F6"/>
<path fill-rule="evenodd" clip-rule="evenodd" d="M35.5273 51.9961C39.866 51.9739 44.2046 51.9961 48.5429 52.0625C48.9192 52.2617 49.207 52.5495 49.4062 52.9258C49.4948 54.3425 49.4948 55.7591 49.4062 57.1758C49.2512 57.6849 48.9192 58.0169 48.4101 58.1719C44.1601 58.2605 39.9101 58.2605 35.6601 58.1719C35.1511 58.0169 34.819 57.6849 34.664 57.1758C34.5754 55.7591 34.5754 54.3425 34.664 52.9258C34.889 52.5462 35.1768 52.2364 35.5273 51.9961Z" fill="#56A9F6"/>
<path fill-rule="evenodd" clip-rule="evenodd" d="M36.7227 53.9883C39.2461 53.9883 41.7695 53.9883 44.293 53.9883C44.293 54.6966 44.293 55.405 44.293 56.1133C41.7695 56.1133 39.2461 56.1133 36.7227 56.1133C36.7227 55.405 36.7227 54.6966 36.7227 53.9883Z" fill="white"/>
<path fill-rule="evenodd" clip-rule="evenodd" d="M44.293 53.9883C45.3555 53.9883 46.418 53.9883 47.4805 53.9883C47.4805 54.7409 47.4805 55.4934 47.4805 56.2461C46.418 56.2461 45.3555 56.2461 44.293 56.2461C44.293 56.2019 44.293 56.1575 44.293 56.1133C44.293 55.405 44.293 54.6966 44.293 53.9883Z" fill="white"/>
<path fill-rule="evenodd" clip-rule="evenodd" d="M36.7227 53.9883C36.7227 54.6966 36.7227 55.405 36.7227 56.1133C39.2461 56.1133 41.7695 56.1133 44.293 56.1133C44.293 56.1575 44.293 56.2019 44.293 56.2461C41.7253 56.2461 39.1575 56.2461 36.5899 56.2461C36.5471 55.4681 36.5913 54.7154 36.7227 53.9883Z" fill="white"/>
<path fill-rule="evenodd" clip-rule="evenodd" d="M18.9258 56.2461C22.9989 56.2239 27.0718 56.2461 31.1445 56.3125C31.7998 56.6664 31.9548 57.1755 31.6094 57.8398C31.4539 58.0249 31.2546 58.1356 31.0117 58.1719C27.0273 58.2605 23.043 58.2605 19.0586 58.1719C18.2225 57.5959 18.1783 56.9539 18.9258 56.2461Z" fill="#56A9F6"/>
<path fill-rule="evenodd" clip-rule="evenodd" d="M44.6914 63.6836C46.1966 63.6836 47.7019 63.6836 49.207 63.6836C49.2478 64.4264 49.2034 65.1569 49.0742 65.875C47.6139 65.9414 46.153 65.9636 44.6914 65.9414C44.6914 65.1888 44.6914 64.4362 44.6914 63.6836Z" fill="#BFCFDC"/>
</g>
<defs>
<clipPath id="clip0_26_211">
<rect width="68" height="68" fill="white"/>
</clipPath>
</defs>
</svg>
