<svg width="53" height="55" viewBox="0 0 53 55" fill="none" xmlns="http://www.w3.org/2000/svg">
<path opacity="0.967" fill-rule="evenodd" clip-rule="evenodd" d="M50.1916 20.4461C47.9073 25.2251 45.6229 30.004 43.3386 34.783C42.9522 34.8808 42.5627 34.8504 42.1698 34.692C41.5855 34.4155 41.3544 33.9932 41.4764 33.4253C43.6832 28.8039 45.7928 24.1492 47.8049 19.4611C47.7142 19.0577 47.4997 18.7214 47.1615 18.4522C44.1378 16.9289 41.0935 15.4477 38.0286 14.0087C36.0553 16.9708 33.465 17.3173 30.258 15.0482C28.7777 13.4112 28.4546 11.6721 29.2883 9.83083C27.5966 9.02221 25.905 8.21359 24.2133 7.40497C22.8128 6.70965 21.393 6.05686 19.9538 5.44685C19.4634 5.44627 19.0265 5.57518 18.6433 5.83354C13.4663 16.3046 8.4797 26.8578 3.68323 37.4929C3.79886 37.8782 4.01338 38.2145 4.32664 38.5019C10.8317 41.741 17.3735 44.8419 23.9522 47.8049C25.6543 40.8003 29.7337 39.6329 36.1903 44.3029C37.2788 41.9653 38.4142 39.6504 39.5964 37.3585C39.9965 37.0031 40.45 36.9602 40.9569 37.2295C41.3944 37.384 41.6628 37.6682 41.7618 38.0818C40.3871 40.9577 39.0125 43.8334 37.6378 46.7093C33.3264 48.0722 28.9681 49.34 24.5629 50.5128C17.1172 47.1075 9.75988 43.5387 2.49078 39.8064C1.33366 38.5976 1.01316 37.2754 1.52928 35.8399C6.36782 25.4758 11.3004 15.1565 16.327 4.88226C17.5234 3.33046 19.1496 2.88692 21.2061 3.55162C24.4596 5.08076 27.7323 6.56718 31.0242 8.01087C32.8665 7.19897 34.6699 7.41151 36.4343 8.64864C37.4386 9.43821 38.0686 10.4147 38.3244 11.5783C41.8501 13.2727 45.334 15.0419 48.7761 16.886C49.8281 17.9252 50.2999 19.1119 50.1916 20.4461Z" fill="#010100"/>
<path fill-rule="evenodd" clip-rule="evenodd" d="M35.2124 10.4804C33.6767 11.3047 33.0703 12.5735 33.393 14.2867C32.1533 14.1201 31.4052 13.4508 31.1489 12.2788C31.2005 10.2034 32.3167 9.43814 34.4977 9.98295C34.7505 10.1344 34.9889 10.3002 35.2124 10.4804Z" fill="#FA4452"/>
<path fill-rule="evenodd" clip-rule="evenodd" d="M35.2124 10.4804C36.4592 11.8606 36.3736 13.0666 34.9551 14.0982C34.4649 14.3351 33.9441 14.3979 33.393 14.2867C33.0703 12.5735 33.6767 11.3047 35.2124 10.4804Z" fill="#FA616B"/>
<path fill-rule="evenodd" clip-rule="evenodd" d="M24.2133 7.40497C23.9463 7.56711 23.7076 7.76473 23.497 7.99776C22.052 10.8396 20.6538 13.7042 19.3025 16.5916C18.5859 15.6597 17.827 15.5568 17.0257 16.2826C16.9693 16.4798 16.959 16.6826 16.9945 16.8912C17.3825 17.7835 17.7338 18.6788 18.0486 19.5771C17.3941 20.5866 16.8215 21.6638 16.3308 22.8085C15.6182 21.8574 14.8592 21.7544 14.054 22.4995C13.9976 22.6967 13.9873 22.8995 14.0229 23.1081C14.4108 24.0004 14.7622 24.8957 15.0769 25.794C14.4224 26.8035 13.8499 27.8807 13.3591 29.0254C12.7162 27.934 12.0142 27.8323 11.2536 28.7203C11.1402 28.9727 11.0995 29.2391 11.1315 29.5192C11.4927 30.3468 11.8173 31.1775 12.1053 32.0109C10.7185 34.4907 9.46195 37.0593 8.33532 39.7166C8.34516 39.8772 8.355 40.0378 8.36484 40.1983C13.5193 42.8181 18.7151 45.3536 23.9522 47.805C17.3735 44.8419 10.8317 41.741 4.32664 38.5019C4.01338 38.2145 3.79886 37.8782 3.68322 37.4929C8.4797 26.8578 13.4663 16.3046 18.6432 5.83354C19.0265 5.57518 19.4634 5.44627 19.9538 5.44686C21.393 6.05687 22.8128 6.70966 24.2133 7.40497Z" fill="#F9C600"/>
<path fill-rule="evenodd" clip-rule="evenodd" d="M24.2133 7.40499C25.905 8.21361 27.5966 9.02223 29.2883 9.83085C28.4546 11.6721 28.7777 13.4112 30.258 15.0483C33.465 17.3174 36.0553 16.9708 38.0286 14.0087C41.0935 15.4477 44.1378 16.9289 47.1615 18.4522C47.4997 18.7214 47.7143 19.0577 47.8049 19.4611C45.7928 24.1493 43.6832 28.8039 41.4764 33.4253C41.3544 33.9933 41.5855 34.4155 42.1698 34.692C41.7655 35.5379 41.3612 36.3836 40.9569 37.2295C40.45 36.9602 39.9965 37.0031 39.5964 37.3585C38.4142 39.6504 37.2788 41.9653 36.1903 44.3029C29.7337 39.6329 25.6543 40.8003 23.9522 47.805C18.7151 45.3536 13.5193 42.8181 8.36485 40.1984C8.35501 40.0378 8.34517 39.8772 8.33533 39.7166C9.46196 37.0593 10.7185 34.4908 12.1053 32.0109C12.3781 32.6336 12.8647 32.9441 13.565 32.9425C15.1443 32.4765 16.7238 32.0104 18.303 31.5445C19.2025 30.7116 19.0356 30.0344 17.8022 29.5126C16.4915 29.7903 15.2012 30.1347 13.9313 30.5458C13.7037 30.0418 13.5131 29.5349 13.3592 29.0254C13.8499 27.8807 14.4224 26.8035 15.0769 25.794C15.3282 26.4302 15.8149 26.7408 16.5367 26.7256C18.1833 26.2397 19.8297 25.7539 21.4763 25.2681C22.1329 24.3939 21.8987 23.7364 20.7739 23.2957C19.4632 23.5734 18.1729 23.9178 16.903 24.3289C16.6754 23.8249 16.4847 23.318 16.3308 22.8085C16.8215 21.6638 17.3941 20.5866 18.0486 19.5771C18.3468 20.2403 18.8804 20.5732 19.6493 20.5761C21.1615 20.1299 22.6736 19.6837 24.1858 19.2375C25.2113 18.2968 24.9973 17.5969 23.544 17.1383C22.3548 17.5074 21.1552 17.8432 19.9451 18.1457C19.662 17.6435 19.4478 17.1254 19.3025 16.5916C20.6538 13.7042 22.052 10.8396 23.497 7.99778C23.7076 7.76475 23.9463 7.56713 24.2133 7.40499Z" fill="#FDD300"/>
<path fill-rule="evenodd" clip-rule="evenodd" d="M18.0486 19.5771C17.7338 18.6788 17.3825 17.7835 16.9945 16.8912C16.959 16.6826 16.9693 16.4798 17.0257 16.2826C17.827 15.5568 18.5859 15.6597 19.3025 16.5916C19.4478 17.1254 19.662 17.6435 19.9451 18.1457C21.1552 17.8431 22.3547 17.5074 23.5439 17.1383C24.9973 17.5969 25.2113 18.2967 24.1857 19.2375C22.6736 19.6837 21.1615 20.1299 19.6493 20.5761C18.8804 20.5732 18.3468 20.2402 18.0486 19.5771Z" fill="#060400"/>
<path fill-rule="evenodd" clip-rule="evenodd" d="M27.7002 20.7616C31.7519 22.6723 35.7829 24.6251 39.7936 26.6201C40.2774 27.5067 40.0147 28.0564 39.0052 28.2695C34.9234 26.4224 30.8823 24.4908 26.8815 22.4744C26.4132 21.5372 26.6861 20.9662 27.7002 20.7616Z" fill="black"/>
<path fill-rule="evenodd" clip-rule="evenodd" d="M15.0769 25.794C14.7622 24.8957 14.4108 24.0004 14.0229 23.1081C13.9873 22.8995 13.9976 22.6967 14.054 22.4995C14.8592 21.7544 15.6182 21.8574 16.3308 22.8085C16.4847 23.318 16.6754 23.8249 16.903 24.3289C18.1729 23.9178 19.4632 23.5734 20.7739 23.2957C21.8987 23.7364 22.1329 24.3939 21.4763 25.2681C19.8297 25.7539 18.1833 26.2397 16.5367 26.7256C15.8149 26.7407 15.3282 26.4302 15.0769 25.794Z" fill="#050400"/>
<path fill-rule="evenodd" clip-rule="evenodd" d="M24.9302 26.919C28.8409 28.7623 32.7309 30.6477 36.6006 32.5754C37.2904 33.2309 37.2693 33.8184 36.5375 34.3377C36.3374 34.4292 36.1224 34.4565 35.8925 34.419C31.8579 32.5944 27.8636 30.6852 23.9098 28.6913C23.4574 27.6463 23.7974 27.0555 24.9302 26.919Z" fill="#040300"/>
<path fill-rule="evenodd" clip-rule="evenodd" d="M12.1052 32.0109C11.8173 31.1775 11.4927 30.3468 11.1315 29.5192C11.0995 29.2391 11.1402 28.9727 11.2536 28.7203C12.0142 27.8323 12.7162 27.9341 13.3591 29.0254C13.5131 29.5349 13.7037 30.0418 13.9313 30.5458C15.2012 30.1347 16.4915 29.7903 17.8022 29.5126C19.0356 30.0344 19.2025 30.7116 18.303 31.5445C16.7237 32.0104 15.1443 32.4765 13.565 32.9425C12.8647 32.9441 12.3781 32.6336 12.1052 32.0109Z" fill="#040300"/>
<path fill-rule="evenodd" clip-rule="evenodd" d="M21.8175 33.0685C25.8221 34.9567 29.8063 36.8871 33.7699 38.8597C34.3469 39.5278 34.2789 40.0929 33.5658 40.5546C33.3657 40.6461 33.1508 40.6734 32.9208 40.6359C28.9331 38.8338 24.9859 36.947 21.0791 34.9756C20.4806 34.0057 20.7266 33.37 21.8175 33.0685Z" fill="#060400"/>
<path fill-rule="evenodd" clip-rule="evenodd" d="M29.7827 43.578C31.1093 44.1863 32.4151 44.8363 33.6996 45.5282C31.381 46.2124 29.0623 46.8965 26.7437 47.5807C27.2157 46.3516 27.7818 45.1673 28.4418 44.0282C28.854 43.7797 29.3009 43.6297 29.7827 43.578Z" fill="#F9E057"/>
</svg>
