<svg width="110" height="235" viewBox="0 0 110 235" fill="none" xmlns="http://www.w3.org/2000/svg">
<path d="M88.2565 2.67325C79.4947 -1.35886 69.8893 -0.706467 63.1678 3.7998C53.9245 9.99696 53.437 20.5793 53.4424 23.5171C53.4309 18.0832 53.1199 18.0963 54.9615 71.8907C58.4506 72.5438 105.574 71.8907 105.574 71.8907C105.574 67.6267 99.906 25.3099 99.2916 20.4114C98.1905 11.6197 93.7668 5.65242 88.2565 2.67325Z" fill="#1E2E45"/>
<path d="M21.2034 99.7907L20.6937 104.556L10.4716 106.737L6.71351 101.092L9.35443 97.8293L17.1442 96.5493L21.2034 99.7907Z" fill="#F89E9A"/>
<path d="M19.1754 98.1714L17.1442 96.55C16.2685 95.8893 15.2308 95.4248 14.1044 95.1901L11.1128 94.5659C10.7796 94.4957 10.4472 94.7504 10.4563 95.0662C10.477 95.7496 10.8728 96.3552 11.5093 96.6794L16.0033 98.991L19.1754 98.1714Z" fill="#F89E9A"/>
<path d="M9.35445 97.83L2.1263 97.6332C1.48135 97.6153 0.907489 98.0798 0.844064 98.6723C0.782931 99.2435 1.22078 99.7273 1.83974 99.7721L9.32769 100.316L10.2546 99.0976L9.35445 97.83Z" fill="#F89E9A"/>
<path d="M0.000422196 101.931C-0.0179175 102.59 0.56359 103.094 1.28495 103.046L9.01362 102.526L9.80147 101.354L8.50927 100.257L1.27656 100.716C0.584233 100.76 0.0187619 101.298 0.000422196 101.931Z" fill="#F89E9A"/>
<path d="M1.75035 105.224C1.89401 105.768 2.47936 106.093 3.0968 105.969L9.66088 104.642L10.0796 103.214L9.01441 102.526L2.72694 103.837C2.04073 103.98 1.59217 104.618 1.75035 105.224Z" fill="#F89E9A"/>
<path d="M5.02628 107.359C5.18064 107.759 5.64524 107.97 6.10908 107.851L10.4717 106.737L10.9248 105.481L9.66087 104.642L5.59481 106.238C5.1111 106.428 4.85893 106.927 5.02628 107.359Z" fill="#F89E9A"/>
<path d="M45.0863 98.629C47.7884 98.2849 48.9995 95.773 49.2395 92.9748C49.2594 92.7532 49.2647 92.531 49.2563 92.3156C49.2051 90.9708 48.6328 89.8339 47.647 89.1127C46.6643 88.3942 45.3874 88.1836 44.0524 88.5195L13.9562 100.892L16.4466 105.463L45.0863 98.629Z" fill="#F89E9A"/>
<path d="M41.1525 97.4439C41.6499 97.8589 42.223 98.1748 42.855 98.3847C45.3377 99.2119 48.0841 98.106 49.1096 95.8673C53.2521 86.8245 55.77 76.814 59.0933 69.6617C60.2242 67.2276 59.5373 64.3888 57.3831 62.5981C56.9468 62.2361 56.46 61.9271 55.9358 61.6807C54.2997 60.9113 52.465 60.806 50.7686 61.3848C49.0729 61.9629 47.7593 63.1411 47.0708 64.7033L39.6769 92.321C39.0159 94.1379 39.5951 96.1487 41.1525 97.4439Z" fill="#F89E9A"/>
<path d="M58.5278 221.353L58.0831 214.656H70.0429L69.456 224.391H59.4119L58.5278 221.353Z" fill="#F89E9A"/>
<path d="M94.9643 221.918L95.2065 214.655H83.2482L83.8343 224.391H93.8784L94.9643 221.918Z" fill="#F89E9A"/>
<path d="M34.8925 231.604C36.5507 229.419 39.1649 227.89 42.1879 227.482C42.1879 227.482 44.9182 228.124 46.231 231.604H73.1408V235H33.3268C33.6286 233.759 34.1276 232.612 34.8925 231.604Z" fill="black"/>
<path d="M47.0082 225.293C49.2449 226.009 50.6539 226.927 50.67 226.939L51.266 226.217C51.198 226.17 50.061 225.434 48.2148 224.745L50.0266 223.923C52.2113 224.795 53.5547 225.825 53.5715 225.837L54.2279 225.16C54.1622 225.108 53.0351 224.246 51.1637 223.408L57.4129 220.57C57.4129 220.57 61.1252 223.541 64.7175 223.541C68.3105 223.541 70.6076 222.427 70.6076 222.427L73.1407 231.604H46.231C44.919 228.124 42.1879 227.481 42.1879 227.481L47.0082 225.293Z" fill="#B64E50"/>
<path d="M50.67 226.939C50.6539 226.927 49.2448 226.008 47.0082 225.293L48.2148 224.745C50.061 225.433 51.198 226.171 51.266 226.217L50.67 226.939Z" fill="#FEFEFD"/>
<path d="M53.5715 225.837C53.5555 225.825 52.2106 224.795 50.0266 223.923L51.1637 223.408C53.0351 224.246 54.1622 225.108 54.2279 225.16L53.5715 225.837Z" fill="#FEFEFD"/>
<path d="M91.4239 227.481C98.3754 227.481 102.084 231.604 102.084 231.604V235H82.9082V231.24C82.9082 231.24 86.1887 227.481 91.4239 227.481Z" fill="black"/>
<path d="M83.6792 221.918C83.6792 221.918 86.784 220.57 89.3072 220.57C91.8297 220.57 94.965 221.918 94.965 221.918L96.2182 225.95C100.634 228.718 102.084 231.604 102.084 231.604C102.084 231.604 98.3754 227.481 91.4239 227.481C86.1887 227.481 82.9082 231.24 82.9082 231.24C83.223 228.787 83.8007 226.582 83.8007 226.582L83.6792 221.918Z" fill="#B64E50"/>
<path d="M87.5833 226.527C90.9907 225.89 93.7454 226.434 93.7737 226.44L93.993 225.563C93.8738 225.538 90.9983 224.966 87.38 225.647L87.5833 226.527Z" fill="#FEFEFD"/>
<path d="M87.3326 224.391C90.1088 223.771 92.3531 224.312 92.3761 224.317L92.6412 223.449C92.5396 223.425 90.1195 222.841 87.0919 223.517L87.3326 224.391Z" fill="#FEFEFD"/>
<path d="M92.83 89.7176C101.774 102.969 105.866 118.419 104.523 133.88L96.222 217.493H81.9576L76.8545 111.299V89.7176H92.83Z" fill="#1E2E45"/>
<path d="M60.8784 89.7176C51.9339 102.969 47.8434 118.419 49.1853 133.88L57.069 217.493H71.3328L76.8545 111.299V89.7176H60.8784Z" fill="#1E2E45"/>
<path d="M81.195 122.358L70.2912 118.981L70.6083 118.152L81.5105 121.532L81.195 122.358Z" fill="#27456B"/>
<path d="M55.3092 107.042L54.8262 106.282C61.1534 103.019 61.7617 97.4949 61.7678 97.4405L62.7352 97.5155C62.7131 97.7598 62.0934 103.542 55.3092 107.042Z" fill="#27456B"/>
<path d="M83.2986 51.3249H69.8892V35.2412H83.2986V51.3249Z" fill="#F89E9A"/>
<path d="M83.2986 46.0657V39.713L72.5951 43.4967L83.2986 46.0657Z" fill="#F36166"/>
<path d="M61.6188 32.4072C60.6247 32.5352 59.1621 31.9633 58.1939 30.7576C56.0825 28.1322 55.3803 23.6232 60.1287 23.0127C64.842 22.4058 65.6811 26.8301 64.5035 29.8809C63.9495 31.3164 62.6428 32.2758 61.6188 32.4072Z" fill="#F36166"/>
<path d="M75.288 44.432C80.4981 44.432 85.8915 42.1506 88.7731 36.769C95.0147 25.1151 94.4385 7.82712 75.288 7.82712C56.2789 7.82712 55.7387 25.7386 62.3043 37.1998C65.3938 42.591 71.1608 44.432 75.288 44.432Z" fill="#F89E9A"/>
<path d="M90.4129 32.4072C91.4071 32.5352 92.8697 31.9633 93.8386 30.7576C95.9492 28.1322 96.6515 23.6232 91.903 23.0127C87.1897 22.4058 86.3514 26.8301 87.529 29.8809C88.0822 31.3164 89.3897 32.2758 90.4129 32.4072Z" fill="#F89E9A"/>
<path d="M73.477 31.7438C72.3613 31.7211 70.4731 31.3185 70.4731 29.9531C70.4731 28.6146 71.8738 28.117 72.615 28.042L72.7197 28.8734L72.667 28.4577L72.7205 28.8734C72.667 28.8789 71.4016 29.0282 71.4016 29.9531C71.4016 30.8216 73.4785 30.9084 73.4984 30.909L73.477 31.7438Z" fill="#F36166"/>
<path d="M83.0541 22.0486C80.6593 21.008 78.2033 21.1705 78.1788 21.1725L78.0894 20.1609C78.201 20.1526 80.8771 19.9764 83.5447 21.1347L83.0541 22.0486Z" fill="#1E2E45"/>
<path d="M63.7225 21.9846L63.264 21.0583C65.9699 19.9723 68.6376 20.2228 68.7484 20.2339L68.6261 21.2427C68.6009 21.24 66.1388 21.0156 63.7225 21.9846Z" fill="#1E2E45"/>
<path d="M73.4961 35.5481C72.7327 35.9947 71.9242 36.7105 71.4749 37.8267C71.9953 38.0621 72.628 38.219 73.396 38.219C76.5382 38.219 77.4758 35.5481 77.4758 35.5481H73.4961Z" fill="#F46AB0"/>
<path d="M73.4961 35.5481H69.3161C69.3161 35.5481 69.8319 37.0848 71.4749 37.8267C71.9242 36.7105 72.7327 35.9947 73.4961 35.5481Z" fill="#1E2E45"/>
<path d="M80.3796 24.8185C80.3796 24.8185 81.1934 24.6995 81.7826 24.3781C81.7826 24.3781 81.457 25.25 80.4919 25.6306L80.3796 24.8185Z" fill="#1E2E45"/>
<path d="M66.4131 24.8185C66.4131 24.8185 65.5993 24.6995 65.0101 24.3781C65.0101 24.3781 65.3349 25.25 66.3008 25.6306L66.4131 24.8185Z" fill="#1E2E45"/>
<path d="M81.2293 25.9416C81.2293 27.0579 80.5561 27.9635 79.7255 27.9635C78.8956 27.9635 78.2224 27.0579 78.2224 25.9416C78.2224 24.8247 78.8956 23.9197 79.7255 23.9197C80.5561 23.9197 81.2293 24.8247 81.2293 25.9416Z" fill="#1E2E45"/>
<path d="M68.8385 25.9416C68.8385 27.0579 68.1661 27.9635 67.3355 27.9635C66.5048 27.9635 65.8316 27.0579 65.8316 25.9416C65.8316 24.8247 66.5048 23.9197 67.3355 23.9197C68.1661 23.9197 68.8385 24.8247 68.8385 25.9416Z" fill="#1E2E45"/>
<path d="M66.5201 25.7669C66.5201 26.0346 66.2802 26.2513 65.9821 26.2513C65.6849 26.2513 65.4449 26.0346 65.4449 25.7669C65.4449 25.4992 65.6849 25.2824 65.9821 25.2824C66.2802 25.2824 66.5201 25.4992 66.5201 25.7669Z" fill="white"/>
<path d="M78.9376 25.7669C78.9376 26.0346 78.6977 26.2513 78.3997 26.2513C78.1024 26.2513 77.8617 26.0346 77.8617 25.7669C77.8617 25.4992 78.1024 25.2824 78.3997 25.2824C78.6977 25.2824 78.9376 25.4992 78.9376 25.7669Z" fill="white"/>
<path d="M91.9412 28.181C91.9412 28.181 90.011 19.3639 79.1592 14.0848C79.1592 14.0848 68.5459 14.4495 66.1441 17.7804C63.7432 21.1112 64.8917 28.181 58.2649 28.181C58.2649 28.181 50.8626 5.3785 75.2712 5.3785C97.8917 5.3785 93.6476 25.7001 91.9412 28.181Z" fill="#1E2E45"/>
<path d="M79.001 14.0849C79.001 14.0849 71.7331 15.9058 68.2448 19.7335C68.2448 19.7335 68.0782 16.0379 72.1145 13.2927C76.15 10.5476 79.001 14.0849 79.001 14.0849Z" fill="#1E2E45"/>
<path d="M47.5194 62.541C45.7985 65.8588 43.6314 75.4432 43.6314 75.4432L61.0801 78.785L64.408 70.8495L71.4886 49.5328L64.5043 51.1067C64.1191 51.1934 63.737 51.2829 63.3588 51.3744C56.136 53.1259 50.9566 55.9137 47.5194 62.541Z" fill="#FAE246"/>
<path d="M97.9727 107.197C91.4071 103.373 91.1336 97.5699 91.1244 97.3249L92.0972 97.2966C92.0994 97.3524 92.3776 102.896 98.5008 106.462L97.9727 107.197Z" fill="#27456B"/>
<path d="M93.2625 114.012L97.5792 116.808L94.5287 125.859L87.2218 125.944L85.4192 122.247L88.1098 115.541L93.2625 114.012Z" fill="#F89E9A"/>
<path d="M90.688 114.776L88.1098 115.541C87.0361 115.89 86.0679 116.464 85.2755 117.223L83.171 119.237C82.9372 119.462 83.0128 119.848 83.3216 119.999C83.9879 120.327 84.7673 120.325 85.3993 119.992L89.8788 117.657L90.688 114.776Z" fill="#F89E9A"/>
<path d="M85.4192 122.247L81.5931 127.775C81.2522 128.267 81.4104 128.948 81.9461 129.295C82.4634 129.631 83.1473 129.534 83.5019 129.075L87.7911 123.52L87.0896 122.185L85.4192 122.247Z" fill="#F89E9A"/>
<path d="M84.6489 131.591C85.271 131.936 86.0481 131.739 86.3637 131.153L89.755 124.876L89.0253 123.673L87.3235 124.126L84.124 129.986C83.8183 130.548 84.0506 131.26 84.6489 131.591Z" fill="#F89E9A"/>
<path d="M88.689 131.885C89.2835 132.048 89.8895 131.756 90.0798 131.213L92.1109 125.437L90.9509 124.393L89.755 124.876L87.8484 130.429C87.6414 131.034 88.0273 131.703 88.689 131.885Z" fill="#F89E9A"/>
<path d="M92.386 130.411C92.8475 130.492 93.2839 130.237 93.4031 129.816L94.5287 125.86L93.5513 124.875L92.1101 125.436L91.5966 129.405C91.5355 129.876 91.887 130.324 92.386 130.411Z" fill="#F89E9A"/>
<path d="M104.24 99.172C104.878 99.2738 105.523 99.2621 106.158 99.1369C108.659 98.6428 110.323 96.4633 109.947 94.1743C108.429 84.9285 105.707 68.3218 104.544 60.9857C104.149 58.4896 102.032 56.5173 99.2756 56.0775C98.7185 55.9887 98.1485 55.9667 97.5815 56.0135C95.8102 56.1573 94.2391 56.9309 93.1547 58.1916C92.0704 59.4524 91.6302 61.0194 91.9145 62.6036L100.226 95.7221C100.672 97.5004 102.248 98.8547 104.24 99.172Z" fill="#F89E9A"/>
<path d="M109.448 96.8466C110.575 94.6086 109.298 89.1884 106.803 87.5051C106.605 87.3716 106.757 87.2278 106.55 87.119C105.263 86.437 103.891 86.2615 102.685 86.6242C101.485 86.9869 100.603 87.8437 100.202 89.0391L90.377 117.865L96.0409 121.374L109.448 96.8466Z" fill="#F89E9A"/>
<path d="M108.125 75.1342C108.125 75.1342 107.647 63.8885 106.13 60.3986C104.35 56.3046 99.1281 53.8897 94.2773 52.1693L90.2448 50.6896L93.5483 72.6581L95.0552 77.2462L108.125 75.1342Z" fill="#FAE246"/>
<path d="M89.7917 51.3242L76.1996 47.1531L63.1456 51.4845L75.6518 58.9438L89.7917 51.3242Z" fill="#F89E9A"/>
<path d="M90.2005 50.6897L85.9197 52.8341C80.2825 55.6584 73.425 55.6584 67.7878 52.8341L63.5085 50.6897C58.3933 53.1981 52.1998 58.4153 53.1733 63.9022L58.1885 81.2611L57.3831 92.6128L69.472 93.9555C74.3748 94.4999 79.3334 94.493 84.2339 93.9349L95.8537 92.6128L94.7136 74.2602L97.4103 63.9022C98.383 58.4153 95.315 53.1981 90.2005 50.6897Z" fill="#FAE246"/>
<path d="M89.2067 77.4187L60.7503 74.6391L60.8512 73.8084L89.3068 76.588L89.2067 77.4187Z" fill="#EFBD2B"/>
<path d="M95.812 83.9241L94.8882 84.0074L93.4179 70.7948L94.3418 70.7115L95.812 83.9241Z" fill="#EFBD2B"/>
<path d="M57.7392 81.3658L55.8013 74.6587C54.9714 71.7855 55.2695 68.7154 56.6396 66.015L58.796 61.7626L59.6404 62.1095L57.4825 66.3625C56.201 68.8889 55.9236 71.76 56.7007 74.4481L58.6378 81.1559L57.7392 81.3658Z" fill="#27456B"/>
<path d="M83.2986 28.2843C83.2986 29.0764 81.7543 29.7192 79.8485 29.7192C77.9419 29.7192 76.3976 29.0764 76.3976 28.2843C76.3976 27.4922 77.9419 26.8501 79.8485 26.8501C81.7543 26.8501 83.2986 27.4922 83.2986 28.2843Z" fill="#F89E9A"/>
</svg>
